<svg _ngcontent-Citroen-c132="" version="1.1" id="iconMyAcTop" xmlns="http://www.w3.org/2000/svg" xmlns:xlink="http://www.w3.org/1999/xlink" width="62" height="40" x="0px" y="0px" viewBox="0 0 63.5 42.7" xml:space="preserve" style="enable-background: new 0 0 63.5 42.7;"><path _ngcontent-Citroen-c132="" id="Find_a_dealer" d="M44.4,36.1c-0.2-0.4-0.6-0.8-1-1c-0.4-0.2-0.9-0.4-1.4-0.4c-0.5,0-1,0.1-1.4,0.4
	c-0.4,0.2-0.8,0.6-1,1c-0.3,0.4-0.4,0.9-0.4,1.4c0,0.5,0.1,1,0.4,1.5c0.2,0.4,0.6,0.8,1,1c0.4,0.2,0.9,0.4,1.4,0.4
	c0.5,0,1-0.1,1.4-0.4c0.4-0.2,0.8-0.6,1-1c0.2-0.4,0.4-0.9,0.4-1.4C44.8,37,44.7,36.5,44.4,36.1z M43.5,38.5
	c-0.1,0.3-0.4,0.5-0.6,0.7c-0.3,0.2-0.6,0.2-0.9,0.2c-0.3,0-0.6-0.1-0.9-0.2c-0.3-0.2-0.5-0.4-0.6-0.7c-0.1-0.3-0.2-0.6-0.2-1
	c0-0.3,0.1-0.7,0.2-1c0.2-0.3,0.4-0.5,0.6-0.7c0.3-0.2,0.6-0.2,0.9-0.2c0.3,0,0.6,0.1,0.9,0.2c0.3,0.2,0.5,0.4,0.6,0.7
	c0.2,0.3,0.2,0.6,0.2,1C43.8,37.9,43.7,38.2,43.5,38.5z" class="st0" fill="#FFFFFF"></path><path _ngcontent-Citroen-c132="" d="M51.1,34.8v5.5h-0.8l-0.1-0.5c-0.2,0.2-0.5,0.3-0.7,0.5c-0.3,0.1-0.6,0.2-1,0.2c-0.4,0-0.7-0.1-1.1-0.2
	c-0.3-0.1-0.5-0.4-0.7-0.7c-0.2-0.4-0.3-0.9-0.2-1.3v-3.4h1v3.3c0,0.4,0.1,0.7,0.3,1c0.3,0.2,0.6,0.3,0.9,0.3c0.3,0,0.5-0.1,0.8-0.2
	c0.2-0.1,0.4-0.3,0.6-0.5v-3.9H51.1z" class="st0" fill="#FFFFFF"></path><path _ngcontent-Citroen-c132="" d="M63.5,40c-0.2,0.1-0.5,0.2-0.7,0.2c-0.2,0-0.5,0.1-0.7,0.1c-0.5,0-0.9-0.1-1.2-0.5c-0.3-0.4-0.5-0.8-0.4-1.3
	v-2.9h-1v-0.9h1v-1.6h1v1.6h1.8v0.9h-1.8v2.5c0,0.3,0,0.6,0.2,0.9c0.1,0.2,0.3,0.3,0.6,0.3c0.2,0,0.3,0,0.5,0c0.2,0,0.3-0.1,0.5-0.2
	L63.5,40z" class="st0" fill="#FFFFFF"></path><path _ngcontent-Citroen-c132="" d="M58.1,36.8v3.4h-1v-3.3c0-0.4-0.1-0.7-0.3-1c-0.3-0.2-0.6-0.3-1-0.3c-0.3,0-0.6,0.1-0.8,0.2
	c-0.2,0.1-0.4,0.3-0.6,0.5v3.9h-1.1v-5.5h0.8l0.1,0.5c0.2-0.2,0.5-0.3,0.8-0.5c0.3-0.1,0.6-0.2,1-0.2c0.4,0,0.7,0.1,1.1,0.2
	c0.3,0.1,0.6,0.4,0.7,0.7C58,35.9,58.1,36.4,58.1,36.8z" class="st0" fill="#FFFFFF"></path><path _ngcontent-Citroen-c132="" d="M37.3,38.6l0.8,0.5c-0.2,0.4-0.6,0.7-1,0.9c-0.5,0.2-1,0.4-1.5,0.4c-0.5,0-1-0.1-1.4-0.4c-0.4-0.2-0.8-0.6-1-1
	c-0.2-0.5-0.4-1-0.4-1.5c0-0.5,0.1-1,0.4-1.4c0.2-0.4,0.6-0.8,1-1c0.4-0.2,0.9-0.4,1.4-0.4c0.5,0,1.1,0.1,1.5,0.4
	c0.4,0.3,0.7,0.6,0.9,1.1l-0.9,0.5c-0.1-0.3-0.3-0.5-0.6-0.7c-0.3-0.2-0.6-0.3-1-0.2c-0.3,0-0.6,0.1-0.9,0.2
	c-0.2,0.2-0.5,0.4-0.6,0.7c-0.1,0.3-0.2,0.6-0.2,1c0,0.3,0.1,0.7,0.2,1c0.1,0.3,0.3,0.5,0.6,0.7c0.3,0.2,0.6,0.3,0.9,0.2
	c0.3,0,0.7-0.1,1-0.2C36.9,39,37.2,38.8,37.3,38.6z" class="st0" fill="#FFFFFF"></path><path _ngcontent-Citroen-c132="" d="M31,38.6l0.8,0.5c-0.2,0.4-0.6,0.7-1,0.9c-0.5,0.2-1,0.4-1.5,0.4c-0.5,0-1-0.1-1.4-0.4c-0.4-0.2-0.7-0.6-1-1
	c-0.2-0.5-0.4-1-0.4-1.5c0-0.5,0.1-1,0.4-1.4c0.2-0.4,0.6-0.8,1-1c0.4-0.2,0.9-0.4,1.4-0.4c0.5,0,1.1,0.1,1.5,0.4
	c0.4,0.3,0.7,0.6,0.9,1.1l-0.9,0.5c-0.1-0.3-0.3-0.5-0.6-0.7c-0.3-0.2-0.6-0.3-1-0.2c-0.3,0-0.6,0.1-0.9,0.2
	c-0.2,0.2-0.5,0.4-0.6,0.7c-0.1,0.3-0.2,0.6-0.2,1c0,0.3,0.1,0.7,0.2,1c0.1,0.3,0.4,0.5,0.6,0.7c0.3,0.2,0.6,0.2,0.9,0.2
	c0.4,0,0.7-0.1,1-0.2C30.7,39,30.9,38.8,31,38.6z" class="st0" fill="#FFFFFF"></path><path _ngcontent-Citroen-c132="" d="M22.7,32.9h-1.2l-2.9,7.4h1.1l0.8-2.1h3.2l0.8,2.1h1.1L22.7,32.9z M20.9,37.2l1.2-3.2l1.3,3.2H20.9z" class="st0" fill="#FFFFFF"></path><polygon _ngcontent-Citroen-c132="" points="14.4,34.8 11.3,42.7 10.3,42.7 11.2,40.3 9.1,34.8 10.2,34.8 11.8,39 13.4,34.8 " class="st0" fill="#FFFFFF"></polygon><polygon _ngcontent-Citroen-c132="" points="7.4,32.9 7.4,40.3 6.3,40.3 6.3,35.5 4.1,40.3 3.3,40.3 1,35.5 1,40.3 0,40.3 0,32.9 0.8,32.9
	3.7,38.8 6.6,32.9 " class="st0" fill="#FFFFFF"></polygon><path _ngcontent-Citroen-c132="" id="Path_5555" d="M31.7,16.9l7.9,6.1c-1.7,3.2-4.5,5.2-7.8,5.2c-3.3,0-6.2-2.1-7.8-5.3L31.7,16.9z M22.5,18.2
	l9.2-7.1l9.3,7.2c-0.1,0.7-0.3,1.4-0.5,2.1l-8.9-6.9L23,20.2C22.8,19.6,22.6,18.9,22.5,18.2L22.5,18.2z M31.8,3.1
	c5.3,0,9.3,5.2,9.5,12.1l-9.5-7.3L22.3,15C22.5,8.2,26.5,3.1,31.8,3.1L31.8,3.1z M31.8,29.4c3-0.1,5.8-1.5,7.6-4
	c2.1-2.8,3.2-6.3,3.1-9.8c0.1-3.5-1-7-3.1-9.8c-1.8-2.4-4.6-3.9-7.6-4c-3,0.1-5.8,1.5-7.6,4c-2.1,2.8-3.2,6.3-3.1,9.8
	c-0.1,3.5,1,7,3.1,9.8C26,27.9,28.8,29.3,31.8,29.4L31.8,29.4z" class="st0" fill="#FFFFFF"></path></svg>