<svg xmlns:xlink="http://www.w3.org/1999/xlink" _ngcontent-Citroen-c134="" xmlns="http://www.w3.org/2000/svg" width="31.13" height="31.216" viewBox="0 0 31.13 31.216"><defs _ngcontent-Citroen-c134=""><style _ngcontent-Citroen-c134="">.a{fill:#fff;}.b{fill:none;}</style></defs><path _ngcontent-Citroen-c134="" d="M0,15.7A15.665,15.665,0,0,0,13.133,31.216V20.243H9.181V15.7h3.952v-3.46c0-3.936,2.324-6.11,5.879-6.11a23.73,23.73,0,0,1,3.484.307v3.865H20.533A2.26,2.26,0,0,0,18,12.758V15.7h4.317l-.69,4.539H18V31.216A15.715,15.715,0,0,0,15.565,0,15.635,15.635,0,0,0,0,15.7Z" class="a" fill="#FFFFFF"></path><path _ngcontent-Citroen-c134="" d="M0,15.7A15.665,15.665,0,0,0,13.133,31.216V20.243H9.181V15.7h3.952v-3.46c0-3.936,2.324-6.11,5.879-6.11a23.73,23.73,0,0,1,3.484.307v3.865H20.533A2.26,2.26,0,0,0,18,12.758V15.7h4.317l-.69,4.539H18V31.216A15.715,15.715,0,0,0,15.565,0,15.635,15.635,0,0,0,0,15.7Z" class="b" fill="none"></path></svg>