<svg xmlns:xlink="http://www.w3.org/1999/xlink" xmlns="http://www.w3.org/2000/svg" width="26" height="26" viewBox="0 0 26 26"><defs><style>.a{fill:#3B3938;}.b{fill:none;}</style></defs><g transform="translate(0 0)"><path class="a" d="M13,26A13,13,0,0,1,3.685,3.932,12.915,12.915,0,0,1,12.826,0H13a13,13,0,0,1,9.31,22.068A12.916,12.916,0,0,1,13.173,26Zm-.235-8.873h0a1.892,1.892,0,0,0-.044,3.784h.071a1.892,1.892,0,1,0,.038-3.784H12.76Zm.23-9.381a1.731,1.731,0,0,1,1.5.563A2.184,2.184,0,0,1,14.9,9.6a1.924,1.924,0,0,1-.459,1.122,2.366,2.366,0,0,1-.535.547,12.881,12.881,0,0,0-2.26,1.818,3.315,3.315,0,0,0-.5,2.186l-.009.256h3.029V15.4a1.962,1.962,0,0,1,.1-.747l.022-.068a2.162,2.162,0,0,1,.8-.97l.793-.547a8.642,8.642,0,0,0,1.552-1.39,3.735,3.735,0,0,0,.752-2.239,3.78,3.78,0,0,0-1.534-3.265,6.336,6.336,0,0,0-3.79-1.092,5.345,5.345,0,0,0-2.938.77A4.747,4.747,0,0,0,7.9,9.952l-.006.134h3.124V9.958a2.817,2.817,0,0,1,.458-1.512A1.636,1.636,0,0,1,12.991,7.745Z"/><path class="b" d="M13,26A13,13,0,0,1,3.685,3.932,12.914,12.914,0,0,1,12.826,0H13a13,13,0,0,1,9.31,22.068A12.915,12.915,0,0,1,13.174,26Zm-.238-8.872a1.892,1.892,0,0,0-.044,3.784l.072,0a1.892,1.892,0,1,0,.037-3.785Zm.23-9.383a1.73,1.73,0,0,1,1.5.564A2.185,2.185,0,0,1,14.9,9.6a1.922,1.922,0,0,1-.459,1.122,2.353,2.353,0,0,1-.535.548,12.95,12.95,0,0,0-2.26,1.818,3.323,3.323,0,0,0-.5,2.186l-.009.257h3.029l0-.128a1.976,1.976,0,0,1,.1-.748l.021-.066a2.157,2.157,0,0,1,.8-.97l.793-.548a8.671,8.671,0,0,0,1.552-1.389,3.741,3.741,0,0,0,.753-2.239,3.784,3.784,0,0,0-1.533-3.266,6.337,6.337,0,0,0-3.79-1.091,5.347,5.347,0,0,0-2.939.771A4.749,4.749,0,0,0,7.9,9.952l-.005.135h3.123V9.957a2.818,2.818,0,0,1,.459-1.512A1.634,1.634,0,0,1,12.991,7.745Z"/></g></svg>