<svg xmlns:xlink="http://www.w3.org/1999/xlink" _ngcontent-Citroen-c134="" xmlns="http://www.w3.org/2000/svg" width="30.056" height="29.864" viewBox="0 0 30.056 29.864"><defs _ngcontent-Citroen-c134=""><style _ngcontent-Citroen-c134="">.a{fill:#fff;}.b{fill:none;}</style></defs><path _ngcontent-Citroen-c134="" d="M15.028,29.864c-4.044,0-4.58-.018-6.2-.092a11.186,11.186,0,0,1-3.648-.693,7.363,7.363,0,0,1-2.66-1.723A7.294,7.294,0,0,1,.789,24.712a10.989,10.989,0,0,1-.7-3.625C.017,19.48,0,18.948,0,14.931s.017-4.55.091-6.156a10.99,10.99,0,0,1,.7-3.625A7.321,7.321,0,0,1,2.524,2.505,7.386,7.386,0,0,1,5.184.783,11.162,11.162,0,0,1,8.832.09c1.6-.073,2.138-.09,6.2-.09s4.591.017,6.195.09a11.162,11.162,0,0,1,3.648.693A7.662,7.662,0,0,1,29.265,5.15a10.987,10.987,0,0,1,.7,3.625c.074,1.627.091,2.163.091,6.156s-.017,4.529-.091,6.155a10.985,10.985,0,0,1-.7,3.625,7.669,7.669,0,0,1-4.395,4.368,11.186,11.186,0,0,1-3.648.693C19.607,29.846,19.071,29.864,15.028,29.864Zm0-27.173c-4.008,0-4.484.015-6.072.087a8.36,8.36,0,0,0-2.79.513A4.678,4.678,0,0,0,4.437,4.408,4.623,4.623,0,0,0,3.313,6.125,8.178,8.178,0,0,0,2.8,8.9c-.073,1.571-.088,2.043-.088,6.034s.015,4.462.088,6.034a8.175,8.175,0,0,0,.517,2.771,4.617,4.617,0,0,0,1.124,1.717,4.669,4.669,0,0,0,1.729,1.118,8.307,8.307,0,0,0,2.79.513c1.584.073,2.059.088,6.072.088s4.486-.015,6.071-.088a8.323,8.323,0,0,0,2.791-.513,4.966,4.966,0,0,0,2.851-2.835,8.175,8.175,0,0,0,.517-2.771c.073-1.572.088-2.044.088-6.034s-.015-4.462-.088-6.034a8.177,8.177,0,0,0-.517-2.772A4.959,4.959,0,0,0,23.89,3.291,8.376,8.376,0,0,0,21.1,2.778C19.511,2.706,19.035,2.69,15.028,2.69Zm0,19.908a7.668,7.668,0,1,1,7.716-7.667A7.7,7.7,0,0,1,15.028,22.6Zm0-12.644a4.977,4.977,0,1,0,5.008,4.977A5,5,0,0,0,15.028,9.955Zm8.021-1.2a1.792,1.792,0,1,1,1.8-1.792A1.8,1.8,0,0,1,23.049,8.752Z" transform="translate(0 0)" class="a" fill="#FFFFFF"></path><path _ngcontent-Citroen-c134="" d="M15.028,29.864c-4.044,0-4.58-.018-6.2-.092a11.186,11.186,0,0,1-3.648-.693,7.363,7.363,0,0,1-2.66-1.723A7.294,7.294,0,0,1,.789,24.712a10.989,10.989,0,0,1-.7-3.625C.017,19.48,0,18.948,0,14.931s.017-4.55.091-6.156a10.99,10.99,0,0,1,.7-3.625A7.321,7.321,0,0,1,2.524,2.505,7.386,7.386,0,0,1,5.184.783,11.162,11.162,0,0,1,8.832.09c1.6-.073,2.138-.09,6.2-.09s4.591.017,6.195.09a11.162,11.162,0,0,1,3.648.693A7.662,7.662,0,0,1,29.265,5.15a10.987,10.987,0,0,1,.7,3.625c.074,1.627.091,2.163.091,6.156s-.017,4.529-.091,6.155a10.985,10.985,0,0,1-.7,3.625,7.669,7.669,0,0,1-4.395,4.368,11.186,11.186,0,0,1-3.648.693C19.607,29.846,19.071,29.864,15.028,29.864Zm0-27.173c-4.008,0-4.484.015-6.072.087a8.36,8.36,0,0,0-2.79.513A4.678,4.678,0,0,0,4.437,4.408,4.623,4.623,0,0,0,3.313,6.125,8.178,8.178,0,0,0,2.8,8.9c-.073,1.571-.088,2.043-.088,6.034s.015,4.462.088,6.034a8.175,8.175,0,0,0,.517,2.771,4.617,4.617,0,0,0,1.124,1.717,4.669,4.669,0,0,0,1.729,1.118,8.307,8.307,0,0,0,2.79.513c1.584.073,2.059.088,6.072.088s4.486-.015,6.071-.088a8.323,8.323,0,0,0,2.791-.513,4.966,4.966,0,0,0,2.851-2.835,8.175,8.175,0,0,0,.517-2.771c.073-1.572.088-2.044.088-6.034s-.015-4.462-.088-6.034a8.177,8.177,0,0,0-.517-2.772A4.959,4.959,0,0,0,23.89,3.291,8.376,8.376,0,0,0,21.1,2.778C19.511,2.706,19.035,2.69,15.028,2.69Zm0,19.908a7.668,7.668,0,1,1,7.716-7.667A7.7,7.7,0,0,1,15.028,22.6Zm0-12.644a4.977,4.977,0,1,0,5.008,4.977A5,5,0,0,0,15.028,9.955Zm8.021-1.2a1.792,1.792,0,1,1,1.8-1.792A1.8,1.8,0,0,1,23.049,8.752Z" transform="translate(0 0)" class="b" fill="none"></path></svg>