<svg xmlns:xlink="http://www.w3.org/1999/xlink" _ngcontent-Citroen-c134="" xmlns="http://www.w3.org/2000/svg" width="28.906" height="29.35" viewBox="0 0 28.906 29.35"><defs _ngcontent-Citroen-c134=""><style _ngcontent-Citroen-c134="">.a{fill:#fff;}.b{fill:none;}</style></defs><path _ngcontent-Citroen-c134="" d="M26.772,29.35H2.135A2.119,2.119,0,0,1,0,27.251V2.1A2.119,2.119,0,0,1,2.135,0H26.772a2.118,2.118,0,0,1,2.134,2.1V27.251A2.119,2.119,0,0,1,26.772,29.35ZM11.206,11.306c.037,1.253-.036,13.152-.037,13.272h4.36V17.171a3.229,3.229,0,0,1,.148-1.077,2.381,2.381,0,0,1,2.245-1.614c1.825,0,2.208,1.625,2.208,2.988V24.56h4.379V16.967a6.474,6.474,0,0,0-1.435-4.5,4.7,4.7,0,0,0-3.588-1.455,4.3,4.3,0,0,0-3.92,2.171V11.306ZM4.4,11.324V24.578H8.759V11.324ZM6.606,4.938A2.288,2.288,0,1,0,6.55,9.5h.037a2.289,2.289,0,1,0,.019-4.566Z" transform="translate(0 0)" class="a" fill="#FFFFFF"></path><path _ngcontent-Citroen-c134="" d="M26.772,29.35H2.135A2.119,2.119,0,0,1,0,27.251V2.1A2.119,2.119,0,0,1,2.135,0H26.772a2.118,2.118,0,0,1,2.134,2.1V27.251A2.119,2.119,0,0,1,26.772,29.35ZM11.206,11.306c.037,1.253-.036,13.152-.037,13.272h4.36V17.171a3.229,3.229,0,0,1,.148-1.077,2.381,2.381,0,0,1,2.245-1.614c1.825,0,2.208,1.625,2.208,2.988V24.56h4.379V16.967a6.474,6.474,0,0,0-1.435-4.5,4.7,4.7,0,0,0-3.588-1.455,4.3,4.3,0,0,0-3.92,2.171V11.306ZM4.4,11.324V24.578H8.759V11.324ZM6.606,4.938A2.288,2.288,0,1,0,6.55,9.5h.037a2.289,2.289,0,1,0,.019-4.566Z" transform="translate(0 0)" class="b" fill="none"></path></svg>