<svg xmlns:xlink="http://www.w3.org/1999/xlink" xmlns="http://www.w3.org/2000/svg" width="32" height="32" viewBox="0 0 34 34"><defs><style>.a{fill:#3b3938;}.b{fill:none;}</style></defs><g transform="translate(8.5 4.25)"><path class="a" d="M8.5,26.35h0a54.377,54.377,0,0,1-4.249-6.1,38.486,38.486,0,0,1-2.922-5.858A17.453,17.453,0,0,1,0,8.234,8.38,8.38,0,0,1,8.5,0,8.38,8.38,0,0,1,17,8.234a17.453,17.453,0,0,1-1.328,6.151,38.484,38.484,0,0,1-2.922,5.858,54.376,54.376,0,0,1-4.249,6.1Zm0-22.715A4.792,4.792,0,0,0,5.155,4.959a4.448,4.448,0,0,0,0,6.436A4.792,4.792,0,0,0,8.5,12.72a4.64,4.64,0,0,0,4.722-4.543,4.432,4.432,0,0,0-1.377-3.218A4.792,4.792,0,0,0,8.5,3.635Z"/><path class="b" d="M8.5,26.35h0a54.377,54.377,0,0,1-4.249-6.1,38.486,38.486,0,0,1-2.922-5.858A17.453,17.453,0,0,1,0,8.234,8.38,8.38,0,0,1,8.5,0,8.38,8.38,0,0,1,17,8.234a17.453,17.453,0,0,1-1.328,6.151,38.484,38.484,0,0,1-2.922,5.858,54.376,54.376,0,0,1-4.249,6.1Zm0-22.715A4.792,4.792,0,0,0,5.155,4.959a4.448,4.448,0,0,0,0,6.436A4.792,4.792,0,0,0,8.5,12.72a4.64,4.64,0,0,0,4.722-4.543,4.432,4.432,0,0,0-1.377-3.218A4.792,4.792,0,0,0,8.5,3.635Z"/></g></svg>