<svg xmlns:xlink="http://www.w3.org/1999/xlink" _ngcontent-Citroen-c134="" xmlns="http://www.w3.org/2000/svg" width="65.22" height="63" viewBox="0 0 65.22 63" id="logoTop"><defs _ngcontent-Citroen-c134=""><style _ngcontent-Citroen-c134=""> .a { fill: #3b3938; } .b{fill: none;} </style></defs><path _ngcontent-Citroen-c134="" d="M38.73,62.97c-2.12-.05-3.55-1.39-3.55-3.33h0c-.01-.88,.33-1.72,.95-2.34,.7-.65,1.63-1,2.58-1h.02s.5-.03,1.25-.03c.44,0,.89,0,1.33,.03,2.12,.09,3.55,1.43,3.55,3.33h0c.01,.88-.33,1.72-.95,2.34-.7,.65-1.63,1-2.58,1h-.02s-.5,.03-1.26,.03c-.45,0-.89,0-1.33-.03Zm-2.01-3.35c0,1.25,.82,2.05,2.13,2.09h.02c.39,.02,.82,.03,1.26,.03,.66,0,.96-.02,1.04-.03h.03s.03,0,.03,0c1.3-.05,2.11-.85,2.11-2.09h0c0-1.26-.8-2.04-2.15-2.1h-.06c-.36-.02-.53-.03-.95-.03-.74,0-1.29,.03-1.29,.03h-.05c-1.3,.06-2.11,.86-2.11,2.1Zm10.03,3.22v-6.4h7.87v1.21h-6.42v1.38h5.63v1.16h-5.63v1.44h6.42v1.21h-7.87Zm-22.21,0v-6.4h6.5c1.49,0,2.37,.72,2.37,1.94,0,1.35-.66,1.87-2.65,1.92h-.71l3.69,2.51h-2.09l-4.44-3.18v-.37h3.64c.93,.03,1.07-.4,1.07-.85,0-.51-.3-.76-.87-.76h-5.06v5.19h-1.44Zm39.23,0v-3.18c0-1.51-.85-2-2.21-2h-3.49v5.19h-1.44v-6.4h5.27c2.32,0,3.31,1.33,3.31,3.03v3.36h-1.44Zm-45.99-.02v-5.2h-3.66v-1.21h8.77v1.21h-3.66v5.2h-1.44Zm-6.76,0v-6.41h1.44v6.41h-1.44Zm-7.56-.03C1.4,62.75,0,61.47,0,59.63H0c-.01-.84,.33-1.64,.94-2.22,.7-.62,1.6-.95,2.53-.95h.02s2.25-.03,3.87-.03c.59,0,1.03,0,1.32,0v1.2c-.43,0-3.57-.01-3.78-.01-.73,0-1.26,.02-1.26,.02h-.05c-1.26,.05-2.07,.82-2.07,1.97s.83,1.91,2.1,1.94c.38,.02,.81,.03,1.24,.03,.36,0,3.43,0,3.83,0v1.22c-.27,0-1.17,0-2.12,0-.74,0-2.5,0-3.09-.03h0Zm47.99-7.14c-.26,0-.47-.2-.47-.46,0-.26,.21-.47,.47-.47h2.12c.25,0,.45,.22,.45,.47,0,.25-.2,.45-.45,.46h-2.12Zm-3.68,0c-.26,0-.47-.2-.47-.46,0-.26,.21-.47,.47-.47h2.11c.26,0,.46,.21,.46,.47,0,.25-.21,.45-.46,.46h-2.11Zm-28.95-14.8c-3.61-4.41-5.6-10.45-5.6-17.01s1.99-12.6,5.6-17.01S27.34,0,32.61,0s10.17,2.43,13.77,6.83,5.6,10.45,5.6,17.01-1.99,12.6-5.6,17.01-8.5,6.83-13.77,6.83-10.17-2.43-13.78-6.83h0Zm-.44-4.55c3.03,5.64,8.16,9.2,14.22,9.2s11.03-3.46,14.08-8.95l-14.29-10.49-14,10.24Zm30.15-4.11c.37-1.18,.65-2.39,.85-3.61l-16.89-12.42L15.8,28.39c.19,1.19,.45,2.36,.8,3.51l15.81-11.57,16.14,11.85Zm1.22-9.06c-.28-11.99-7.56-20.95-17.15-20.95S15.82,11.03,15.46,22.92l17.04-12.48,17.26,12.69Z" class="a" fill="#3B3938"></path><path _ngcontent-Citroen-c134="" d="M38.73,62.97c-2.12-.05-3.55-1.39-3.55-3.33h0c-.01-.88,.33-1.72,.95-2.34,.7-.65,1.63-1,2.58-1h.02s.5-.03,1.25-.03c.44,0,.89,0,1.33,.03,2.12,.09,3.55,1.43,3.55,3.33h0c.01,.88-.33,1.72-.95,2.34-.7,.65-1.63,1-2.58,1h-.02s-.5,.03-1.26,.03c-.45,0-.89,0-1.33-.03Zm-2.01-3.35c0,1.25,.82,2.05,2.13,2.09h.02c.39,.02,.82,.03,1.26,.03,.66,0,.96-.02,1.04-.03h.03s.03,0,.03,0c1.3-.05,2.11-.85,2.11-2.09h0c0-1.26-.8-2.04-2.15-2.1h-.06c-.36-.02-.53-.03-.95-.03-.74,0-1.29,.03-1.29,.03h-.05c-1.3,.06-2.11,.86-2.11,2.1Zm10.03,3.22v-6.4h7.87v1.21h-6.42v1.38h5.63v1.16h-5.63v1.44h6.42v1.21h-7.87Zm-22.21,0v-6.4h6.5c1.49,0,2.37,.72,2.37,1.94,0,1.35-.66,1.87-2.65,1.92h-.71l3.69,2.51h-2.09l-4.44-3.18v-.37h3.64c.93,.03,1.07-.4,1.07-.85,0-.51-.3-.76-.87-.76h-5.06v5.19h-1.44Zm39.23,0v-3.18c0-1.51-.85-2-2.21-2h-3.49v5.19h-1.44v-6.4h5.27c2.32,0,3.31,1.33,3.31,3.03v3.36h-1.44Zm-45.99-.02v-5.2h-3.66v-1.21h8.77v1.21h-3.66v5.2h-1.44Zm-6.76,0v-6.41h1.44v6.41h-1.44Zm-7.56-.03C1.4,62.75,0,61.47,0,59.63H0c-.01-.84,.33-1.64,.94-2.22,.7-.62,1.6-.95,2.53-.95h.02s2.25-.03,3.87-.03c.59,0,1.03,0,1.32,0v1.2c-.43,0-3.57-.01-3.78-.01-.73,0-1.26,.02-1.26,.02h-.05c-1.26,.05-2.07,.82-2.07,1.97s.83,1.91,2.1,1.94c.38,.02,.81,.03,1.24,.03,.36,0,3.43,0,3.83,0v1.22c-.27,0-1.17,0-2.12,0-.74,0-2.5,0-3.09-.03h0Zm47.99-7.14c-.26,0-.47-.2-.47-.46,0-.26,.21-.47,.47-.47h2.12c.25,0,.45,.22,.45,.47,0,.25-.2,.45-.45,.46h-2.12Zm-3.68,0c-.26,0-.47-.2-.47-.46,0-.26,.21-.47,.47-.47h2.11c.26,0,.46,.21,.46,.47,0,.25-.21,.45-.46,.46h-2.11Zm-28.95-14.8c-3.61-4.41-5.6-10.45-5.6-17.01s1.99-12.6,5.6-17.01S27.34,0,32.61,0s10.17,2.43,13.77,6.83,5.6,10.45,5.6,17.01-1.99,12.6-5.6,17.01-8.5,6.83-13.77,6.83-10.17-2.43-13.78-6.83h0Zm-.44-4.55c3.03,5.64,8.16,9.2,14.22,9.2s11.03-3.46,14.08-8.95l-14.29-10.49-14,10.24Zm30.15-4.11c.37-1.18,.65-2.39,.85-3.61l-16.89-12.42L15.8,28.39c.19,1.19,.45,2.36,.8,3.51l15.81-11.57,16.14,11.85Zm1.22-9.06c-.28-11.99-7.56-20.95-17.15-20.95S15.82,11.03,15.46,22.92l17.04-12.48,17.26,12.69Z" class="b" fill="none"></path></svg>