<svg xmlns:xlink="http://www.w3.org/1999/xlink" _ngcontent-Citroen-c134="" xmlns="http://www.w3.org/2000/svg" width="32.8" height="26.635" viewBox="0 0 32.8 26.635"><defs _ngcontent-Citroen-c134=""><style _ngcontent-Citroen-c134="">.a{fill:#fff;}.b{fill:none;}</style></defs><path _ngcontent-Citroen-c134="" d="M32.8,3.154a13.456,13.456,0,0,1-3.866,1.059A6.752,6.752,0,0,0,31.894.492,13.472,13.472,0,0,1,27.62,2.124,6.734,6.734,0,0,0,16.154,8.257,19.112,19.112,0,0,1,2.282,1.23a6.729,6.729,0,0,0,2.081,8.978,6.725,6.725,0,0,1-3.046-.839c0,.025,0,.055,0,.081a6.733,6.733,0,0,0,5.4,6.6,6.777,6.777,0,0,1-1.773.235,6.869,6.869,0,0,1-1.265-.12,6.734,6.734,0,0,0,6.286,4.668A13.5,13.5,0,0,1,1.6,23.707,13.49,13.49,0,0,1,0,23.613a19.038,19.038,0,0,0,10.314,3.022c12.38,0,19.148-10.246,19.148-19.129,0-.293-.007-.584-.019-.871A13.665,13.665,0,0,0,32.8,3.154" class="a" fill="#FFFFFF"></path><path _ngcontent-Citroen-c134="" d="M32.8,3.154a13.456,13.456,0,0,1-3.866,1.059A6.752,6.752,0,0,0,31.894.492,13.472,13.472,0,0,1,27.62,2.124,6.734,6.734,0,0,0,16.154,8.257,19.112,19.112,0,0,1,2.282,1.23a6.729,6.729,0,0,0,2.081,8.978,6.725,6.725,0,0,1-3.046-.839c0,.025,0,.055,0,.081a6.733,6.733,0,0,0,5.4,6.6,6.777,6.777,0,0,1-1.773.235,6.869,6.869,0,0,1-1.265-.12,6.734,6.734,0,0,0,6.286,4.668A13.5,13.5,0,0,1,1.6,23.707,13.49,13.49,0,0,1,0,23.613a19.038,19.038,0,0,0,10.314,3.022c12.38,0,19.148-10.246,19.148-19.129,0-.293-.007-.584-.019-.871A13.665,13.665,0,0,0,32.8,3.154" class="b" fill="none"></path></svg>