<svg xmlns:xlink="http://www.w3.org/1999/xlink" _ngcontent-Citroen-c134="" xmlns="http://www.w3.org/2000/svg" width="31.2" height="20.985" viewBox="0 0 31.2 20.985"><defs _ngcontent-Citroen-c134=""><style _ngcontent-Citroen-c134="">.a{fill:#fff;}.b{fill:none;}</style></defs><path _ngcontent-Citroen-c134="" d="M15.6,20.985c-3.9,0-8.7-.051-10.631-.166-1.87-.112-2.79-.394-3.647-1.855C.42,17.426,0,14.735,0,10.5v-.007c0-4.24.42-6.931,1.322-8.467C2.179.559,3.1.276,4.969.164,6.883.051,11.687,0,15.6,0s8.72.051,10.632.164C28.1.276,29.02.559,29.878,2.021,30.78,3.56,31.2,6.25,31.2,10.488V10.5c0,4.238-.42,6.929-1.322,8.468-.857,1.461-1.777,1.743-3.647,1.855C24.3,20.934,19.5,20.985,15.6,20.985ZM12.494,4.98V16.007l8.86-5.515L12.494,4.98Z" transform="translate(0 0)" class="a" fill="#FFFFFF"></path><path _ngcontent-Citroen-c134="" d="M15.6,20.985c-3.9,0-8.7-.051-10.631-.166-1.87-.112-2.79-.394-3.647-1.855C.42,17.426,0,14.735,0,10.5v-.007c0-4.24.42-6.931,1.322-8.467C2.179.559,3.1.276,4.969.164,6.883.051,11.687,0,15.6,0s8.72.051,10.632.164C28.1.276,29.02.559,29.878,2.021,30.78,3.56,31.2,6.25,31.2,10.488V10.5c0,4.238-.42,6.929-1.322,8.468-.857,1.461-1.777,1.743-3.647,1.855C24.3,20.934,19.5,20.985,15.6,20.985ZM12.494,4.98V16.007l8.86-5.515L12.494,4.98Z" transform="translate(0 0)" class="b" fill="none"></path></svg>